:SAMPLES-PER-SECOND 30
:FULLY-SPECIFIED
:DEGREES
31
root  66.5077 39.4112 -27.5186 -179.302 -86.9035 -179.822
RightUpLeg  -0.996394 -10.6596 -2.56064
RightLeg  17.1934 -3.10048 1.4261
RightFoot  -16.6896 -0.0938048 0.406248
RightToes  -1.74624e-010 0 -3.6325e-017
Spine  3.85875 0.346533 11.2098
Spine1  10.7258 1.92742 -3.38149
HEad  -9.52823 -2.53664 -4.22647
LeftShoulder1  8.42194 -11.8412 -47.9001
LeftArm  -13.047 21.5464 -33.3503
LeftForeArm  26.203 -13.8104 -4.11858
LeftHand  -0.244104 0.0205437 5.32207
RightShoulder  6.56531 9.70465 43.3352
RightArm  -10.4575 -15.1646 34.2281
RightForeArm  3.45795 9.01984 6.66712
RightHand  -0.354011 -1.35942 -10.2529
LeftUpLeg  -19.9112 7.9256 2.68933
LeftLeg  45.0301 7.86549 8.75415
LeftFoot  -3.30611 0.129039 -1.56005
LeftToes  -2.54691e-011 4.12133e-011 -4.68171e-012
32
root  65.9545 39.4501 -27.6629 -160.699 -86.7085 161.829
RightUpLeg  0.0637578 -10.557 -3.71795
RightLeg  16.3562 -3.04072 1.61006
RightFoot  -17.1596 -0.080895 0.694427
RightToes  -1.74624e-010 0 -3.6325e-017
Spine  3.87822 0.747974 11.2309
Spine1  10.6967 2.64489 -4.7012
HEad  -10.019 -3.08701 -3.3682
LeftShoulder1  8.32092 -11.7506 -47.6016
LeftArm  -12.0092 22.3992 -33.0718
LeftForeArm  26.6389 -13.4239 -4.36205
LeftHand  -0.244104 0.0205437 5.32207
RightShoulder  6.41908 9.64374 42.5192
RightArm  -8.42993 -13.5165 34.0994
RightForeArm  4.02019 8.87823 6.98046
RightHand  -0.0898763 -4.63807 -11.3805
LeftUpLeg  -22.9018 8.6178 0.276201
LeftLeg  44.546 4.91972 5.59495
LeftFoot  -4.1522 0.251212 -3.61475
LeftToes  -2.54691e-011 4.12133e-011 -4.68171e-012
33
root  65.3659 39.5197 -27.8136 -146.86 -85.9574 148.331
RightUpLeg  1.24608 -10.3798 -4.87689
RightLeg  15.0808 -2.87407 1.78378
RightFoot  -17.3012 -0.0724851 0.857487
RightToes  -1.74624e-010 0 -3.6325e-017
Spine  3.94212 1.25543 11.1166
Spine1  10.67 3.45676 -6.10321
HEad  -10.4988 -3.74393 -3.06954
LeftShoulder1  8.11626 -11.4791 -47.2652
LeftArm  -11.5298 22.7848 -32.6585
LeftForeArm  26.6558 -12.8437 -4.54509
LeftHand  -0.244104 0.0205437 5.32207
RightShoulder  6.27524 9.5902 41.6813
RightArm  -7.34714 -12.2419 34.3087
RightForeArm  -2.12729 10.3174 7.45217
RightHand  0.0080907 -5.66973 -12.4191
LeftUpLeg  -24.9583 9.95043 -2.30283
LeftLeg  40.6254 4.42847 4.41143
LeftFoot  -4.76585 0.333826 -5.29399
LeftToes  -2.54691e-011 4.12133e-011 -4.68171e-012
34
root  64.7357 39.5703 -27.9559 -138.805 -85.3391 140.428
RightUpLeg  2.86972 -10.1805 -5.8386
RightLeg  13.5545 -2.9696 1.94937
RightFoot  -17.4462 -0.0748063 0.811706
RightToes  -1.74624e-010 0 -3.6325e-017
Spine  4.42754 1.57069 11.029
Spine1  10.3545 4.06607 -7.41465
HEad  -11.1248 -4.30507 -3.09002
LeftShoulder1  7.99167 -11.3454 -46.9518
LeftArm  -11.4629 23.6715 -32.1542
LeftForeArm  25.922 -13.1963 -4.49018
LeftHand  -0.244104 0.0205437 5.32207
RightShoulder  6.16392 9.52396 41.1099
RightArm  -6.10333 -11.0994 34.4513
RightForeArm  -5.92709 13.2993 7.19862
RightHand  -0.247103 -3.28873 -13.2043
LeftUpLeg  -26.1574 11.0643 -4.73336
LeftLeg  34.4812 5.94441 4.71237
LeftFoot  -5.00608 0.291808 -4.72754
LeftToes  -2.54691e-011 4.12133e-011 -4.68171e-012
35
root  64.0382 39.5429 -28.0796 -133.907 -85.1322 135.551
RightUpLeg  4.80198 -10.0005 -6.48046
RightLeg  12.0643 -3.1962 2.22412
RightFoot  -17.9007 -0.0679666 0.925437
RightToes  -1.74624e-010 0 -3.6325e-017
Spine  5.0995 1.58654 11.0338
Spine1  9.74524 4.30424 -8.46557
HEad  -11.5862 -4.3693 -3.35623
LeftShoulder1  7.97395 -11.3931 -46.6919
LeftArm  -11.6868 25.2671 -31.5647
LeftForeArm  24.6994 -14.4218 -4.23148
LeftHand  -0.244104 0.0205437 5.32207
RightShoulder  6.1958 9.56991 41.1814
RightArm  -3.61755 -9.25398 34.064
RightForeArm  -5.15538 16.8142 6.26947
RightHand  -0.432568 -1.59958 -13.103
LeftUpLeg  -26.777 11.7225 -6.65537
LeftLeg  27.3318 6.74005 4.1535
LeftFoot  -4.96606 0.244159 -3.84838
LeftToes  -2.54691e-011 4.12133e-011 -4.68171e-012
36
root  63.262 39.4447 -28.1938 -133.09 -85.0556 134.864
RightUpLeg  6.61772 -9.80986 -6.77656
RightLeg  10.799 -3.21174 2.52826
RightFoot  -18.4364 -0.0489373 1.22436
RightToes  -1.74624e-010 0 -3.6325e-017
Spine  5.37173 1.61135 11.0202
Spine1  9.4177 4.43695 -9.08997
HEad  -11.7709 -4.07663 -3.87605
LeftShoulder1  7.96985 -11.4371 -46.5266
LeftArm  -12.0963 26.6139 -31.0107
LeftForeArm  23.6969 -15.3974 -4.00329
LeftHand  -0.244104 0.0205437 5.32207
RightShoulder  6.31466 9.69806 41.5951
RightArm  -1.2903 -6.41184 33.3896
RightForeArm  -5.23657 19.6938 5.53932
RightHand  -0.401719 -1.84921 -13.0062
LeftUpLeg  -27.1165 12.3541 -7.99907
LeftLeg  19.9377 5.08119 2.3507
LeftFoot  -4.32882 0.274326 -4.04333
LeftToes  -2.54691e-011 4.12133e-011 -4.68171e-012
